<?xml version="1.0" encoding="utf-8"?>
<!DOCTYPE svg PUBLIC "-//W3C//DTD SVG 1.0//EN" "http://www.w3.org/TR/2001/REC-SVG-20010904/DTD/svg10.dtd">
<svg version="1.0" xmlns="http://www.w3.org/2000/svg" width="416px" height="416px" viewBox="0 0 416 416" preserveAspectRatio="xMidYMid meet">
 <g fill="#4349aa">
  <path d="M195 414.9 c-21.7 -1.2 -42.1 -5.7 -63.3 -14.1 -69.5 -27.6 -118.3 -89.7 -129.2 -164.2 -2.1 -14.4 -2.1 -42.8 0 -57.2 13.5 -92.2 84.7 -163.4 176.9 -176.9 14.4 -2.1 42.8 -2.1 57.2 0 92.2 13.5 163.4 84.7 176.9 176.9 2.1 14.4 2.1 42.8 0 57.2 -10.9 74.5 -59.7 136.5 -129.2 164.2 -28.4 11.3 -56.5 15.7 -89.3 14.1z m-25.4 -164.9 c10.9 -3.8 20.1 -12.8 24.6 -24 1.7 -4.2 2.2 -7.6 2.3 -14.5 0 -8.2 -0.3 -9.6 -3.2 -15.6 -7.4 -15.1 -24.9 -24 -40.8 -20.9 -17.3 3.4 -30.2 16.3 -33.4 33.3 -2 11 2.4 24.3 10.9 32.8 10.9 10.9 25 14.1 39.6 8.9z m-96.1 -0.4 c6.6 -1.7 8.9 -3 14.3 -8 14.5 -13.3 17.4 -35.1 6.9 -51.1 -7 -10.8 -15.6 -14.5 -33.3 -14.5 l-11.2 0 -0.6 3.8 c-0.7 4.5 -8.6 68.8 -8.6 70.2 0 1.5 26.6 1.2 32.5 -0.4z m146.3 -8.3 c1.7 -5.4 5.2 -16.7 7.8 -25 l4.8 -15.3 3.5 0 3.6 0 7.4 24.5 7.4 24.6 7.8 -14.3 c4.3 -7.9 10.4 -19.1 13.6 -25 5.5 -10.2 6 -10.8 8.9 -10.8 3.1 0 3.2 0.2 3.8 5.3 0.3 2.8 1 13.3 1.6 23.2 1.4 22.6 1.4 22.5 4.6 22.5 2.3 0 2.4 -0.3 2 -3.2 -0.3 -1.8 -1.5 -17.2 -2.6 -34.3 -1.2 -17 -2.5 -31.8 -2.8 -32.8 -0.5 -1.2 -5.1 6.4 -16.2 26.8 -15.3 28.3 -15.5 28.5 -18.7 28.5 l-3.2 0 -4.5 -14.2 c-2.5 -7.9 -6.4 -20.5 -8.7 -28 -2.4 -7.6 -4.4 -13.6 -4.5 -13.5 -0.2 0.1 -5.4 16.1 -11.7 35.5 -11 33.7 -11.3 35.2 -9.2 35.2 1.9 0 2.6 -1.2 5.3 -9.7z m104.7 0.2 l5 -9.5 18.9 0.2 18.9 0.3 2.6 9 c2.3 7.5 3.1 9.1 4.9 9.3 1.2 0.2 2.2 -0.1 2.2 -0.6 0 -0.9 -22.9 -72.5 -23.3 -72.8 -0.2 -0.2 -36.9 70.9 -37.5 72.7 -0.2 0.5 0.5 0.9 1.5 0.9 1.3 0 3.3 -2.8 6.8 -9.5z"/>
  <path d="M148.9 247 c-9 -1.6 -17 -7.3 -20.9 -15 -4.6 -9 -4.6 -26.9 -0.1 -35.8 2.4 -4.7 8.6 -10.9 13.3 -13.3 8.5 -4.4 26.7 -4.5 35.1 -0.3 5.4 2.7 10.6 8.5 12.7 14.1 2.5 6.6 2.7 21.5 0.5 29 -2.7 9.2 -11.2 18.1 -19.4 20.3 -5.5 1.4 -16.1 2 -21.2 1z"/>
  <path d="M48 240.9 c0 -4.9 5.4 -52.4 6.5 -57.6 0.5 -2.2 1 -2.3 9.5 -2.3 16.4 0 23.3 3 28.3 12.4 2 3.7 2.2 5.6 2.2 18.1 -0.1 15.2 -0.6 17.3 -6.3 25.1 -5.1 7 -10.3 8.8 -26.4 9.2 l-13.8 0.4 0 -5.3z"/>
  <path d="M335 224.6 c0 -2.1 2.4 -8.4 6.6 -17 l6.7 -13.7 3.6 0.3 3.5 0.3 3.8 12.5 c2.1 6.9 3.8 14.4 3.8 16.8 l0 4.2 -14 0 -14 0 0 -3.4z"/>
 </g>
 <g fill="#ffffff">
  <path d="M251.3 253 c-1.1 -3.6 -4.9 -16.1 -8.4 -27.7 -3.5 -11.7 -6.6 -21.3 -6.9 -21.3 -0.4 0 -2.8 6.9 -5.4 15.3 -2.6 8.3 -6.1 19.6 -7.8 25 l-3.1 9.7 -5.8 0 c-3.4 0 -5.9 -0.4 -5.9 -1 0 -0.6 5 -16.5 11.1 -35.3 16.2 -50.2 16.1 -49.9 16.5 -49.4 0.3 0.2 4.7 14.3 10 31.3 5.3 17 9.9 31.5 10.3 32.1 0.4 0.8 7.9 -12 18.1 -30.8 9.6 -17.7 17.9 -32.8 18.5 -33.6 0.8 -1.1 1.8 8.1 3.9 35.9 1.5 20.5 3 40.3 3.3 44.1 l0.6 6.7 -5.6 0 c-6.8 0 -6.2 2 -7.8 -24 -1.9 -31.1 -0.1 -31.1 -16.8 -0.4 -7.9 14.6 -15 27.2 -15.7 28.1 -1 1.5 -1.5 0.8 -3.1 -4.7z"/>
  <path d="M145.3 254.5 c-16.4 -4.6 -26.6 -16.2 -29.4 -33.4 -4 -24 11.1 -45.2 35 -49.3 19.2 -3.3 37.6 5.2 45.4 21.1 3.1 6.3 3.2 7 3.2 18.6 0 10 -0.4 12.9 -2.3 17.5 -4.6 11.4 -13.6 20.2 -24.9 24.2 -7.6 2.6 -20.1 3.3 -27 1.3z m21.8 -11.6 c8.1 -2 16.7 -11 19.4 -20.2 4.5 -15.3 -1 -31 -13.1 -37.1 -7.6 -3.8 -21.5 -3.6 -29.2 0.3 -4.7 2.4 -10.9 8.6 -13.3 13.3 -2.6 5.1 -3.8 13.7 -2.7 20.4 2.9 18.7 19 28.3 38.9 23.3z"/>
  <path d="M37.4 250.3 c0.3 -2.1 2.4 -18.6 4.6 -36.8 2.2 -18.1 4.3 -34.7 4.6 -36.7 l0.6 -3.8 14.2 0 c16.3 0 22.2 1.3 28.8 6.3 9.2 7 13.9 18.1 13.9 32.7 0 14 -4.2 24.3 -13.3 32.6 -8.8 8.1 -13.7 9.4 -36.6 9.4 l-17.4 0 0.6 -3.7z m40 -10.2 c4.9 -2.4 9.3 -7.5 12.4 -14.1 1.1 -2.5 1.6 -6.7 1.6 -14.5 0.1 -9.5 -0.2 -11.6 -2.1 -15.1 -4.7 -8.8 -12 -12.4 -25.3 -12.4 -5.4 0 -6 0.2 -6.5 2.3 -0.7 3.3 -6.5 51.8 -6.5 54.6 l0 2.4 10.8 -0.5 c8.6 -0.3 11.8 -0.9 15.6 -2.7z"/>
  <path d="M310 253.4 c0 -0.6 35.5 -69.6 40.7 -79.2 1.9 -3.5 3.7 -6.2 3.9 -5.9 0.5 0.5 27.4 83.9 27.4 85 0 0.4 -2.8 0.7 -6.2 0.5 l-6.2 -0.3 -2.7 -9 -2.6 -9 -15.9 -0.3 -15.9 -0.2 -5 9.5 -5 9.5 -6.2 0 c-3.5 0 -6.3 -0.3 -6.3 -0.6z m50 -29.5 c0 -1.9 -7.1 -25.3 -8 -26.2 -0.5 -0.6 -14 25.2 -14 26.9 0 0.2 5 0.4 11 0.4 7.6 0 11 -0.4 11 -1.1z"/>
 </g>
</svg>